<svg version="1.1" viewBox="0.0 0.0 644.7979002624672 579.2440944881889" fill="none" stroke="none" stroke-linecap="square" stroke-miterlimit="10" xmlns:xlink="http://www.w3.org/1999/xlink" xmlns="http://www.w3.org/2000/svg"><clipPath id="p.0"><path d="m0 0l644.7979 0l0 579.2441l-644.7979 0l0 -579.2441z" clip-rule="nonzero"/></clipPath><g clip-path="url(#p.0)"><path fill="#000000" fill-opacity="0.0" d="m0 0l644.7979 0l0 579.2441l-644.7979 0z" fill-rule="evenodd"/><path fill="#000000" fill-opacity="0.0" d="m36.225723 289.62204l0 0c0 -147.60353 128.12411 -267.25983 286.17322 -267.25983l0 0c158.0491 0 286.17325 119.6563 286.17325 267.25983l0 0c0 147.60355 -128.12415 267.25986 -286.17325 267.25986l0 0c-158.04912 0 -286.17322 -119.65631 -286.17322 -267.25986z" fill-rule="evenodd"/><path stroke="#000000" stroke-width="16.0" stroke-linejoin="round" stroke-linecap="butt" d="m36.225723 289.62204l0 0c0 -147.60353 128.12411 -267.25983 286.17322 -267.25983l0 0c158.0491 0 286.17325 119.6563 286.17325 267.25983l0 0c0 147.60355 -128.12415 267.25986 -286.17325 267.25986l0 0c-158.04912 0 -286.17322 -119.65631 -286.17322 -267.25986z" fill-rule="evenodd"/><path fill="#000000" fill-opacity="0.0" d="m108.587204 218.72878l339.0551 -133.03937l88.566895 225.7323l-339.0551 133.03937z" fill-rule="evenodd"/><path fill="#000000" d="m220.99605 201.23747q3.7736664 -0.69181824 6.1868134 0.32511902q2.421997 0.99668884 3.3065796 3.251236q1.4609833 3.723648 0.034179688 6.2473145q-1.4325256 2.50914 -6.0728455 3.943863q-10.481079 3.1894379 -16.291275 5.150345q-5.810211 1.9609222 -15.121246 5.480133q3.9807587 22.423492 8.716202 44.802628q1.7769318 8.165161 4.3760223 18.81076q2.6136322 10.639893 4.599594 17.02774q1.0659027 3.3583374 -0.7308197 6.0942993q-1.802414 2.721405 -5.307831 4.096863q-3.7236176 1.4610901 -6.467621 0.45648193q-2.7497253 -1.019165 -3.9025269 -3.9573364q-1.0615082 -2.7054749 -2.6775818 -9.305603q-1.601532 -6.605835 -3.166397 -13.93103q-1.46875 -7.379669 -2.7825623 -12.738831q-2.1307526 -9.066956 -3.8813171 -18.148834q-1.736023 -9.087555 -3.1239166 -17.287857q-0.32746887 -1.8185425 -0.73831177 -4.1918335q-0.40200806 -2.3935547 -0.91078186 -5.3158875q-10.937744 4.677826 -16.688568 8.629608q-5.736267 3.9460907 -7.3536835 7.6523438q-1.6085815 3.68602 0.029312134 7.8605804q1.5066376 3.8399963 5.136551 6.4608154q0.759079 0.608551 1.112915 1.5103455q0.844635 2.1527405 -0.9703064 5.013336q-1.8003998 2.8549194 -4.5203705 3.9221802q-1.9199982 0.75338745 -3.6014862 0.10394287q-3.0078583 -1.0353699 -5.8694305 -4.008026q-2.8672943 -2.9871826 -4.6364594 -7.496277q-3.7666016 -9.600037 0.21965027 -17.878082q3.9862518 -8.278061 15.739197 -16.011688q11.747238 -7.748169 31.86345 -15.641418q12.421722 -4.874069 19.98767 -7.3224945q7.58049 -2.4541168 13.507202 -3.6047363zm30.796722 96.74855q-4.290863 1.6836548 -7.8200226 -2.1348572q-3.5203094 -3.838745 -7.423874 -13.787872q-5.7583466 -14.676392 -6.7569275 -29.541931q-0.28044128 -3.6665497 1.4387512 -6.086746q1.7280121 -2.440445 5.902527 -4.0784454q2.2545319 -0.88464355 3.3789062 -0.6712189q1.1332245 0.19316101 1.7552795 1.7786102q0.7076721 1.8036499 1.4884033 8.798691q0.6548767 4.9631195 1.3009644 8.620438q0.6403961 3.6428223 2.1412811 8.794281q-0.07411194 -11.1831665 2.16008 -19.092651q2.234192 -7.909485 5.683777 -12.250732q3.443863 -4.3558044 7.167465 -5.8168793q7.345398 -2.8822021 10.22171 4.448715q0.576416 1.469101 1.7725525 7.512253q0.8730469 4.8775024 1.3182068 6.0120544q1.5465698 3.9418182 4.3683777 2.8345947q3.1563416 -1.2384949 6.1847534 -8.150406q0.8927002 -2.0455322 2.478119 -2.667633q1.4545593 -0.57073975 2.8060913 0.39279175q1.3660889 0.95780945 2.2107239 3.1105347q1.6379089 4.1745605 0.31362915 7.4301147q-1.8811035 4.5314636 -5.2063904 8.505035q-3.3252869 3.9735718 -8.067078 5.8341675q-5.992676 2.35141 -10.298126 0.5327759q-4.296631 -1.8388672 -6.3397217 -7.046173q-0.6620178 -1.6872559 -0.9951782 -3.5203552q-0.65185547 -2.345871 -0.9600525 -3.1313171q-0.7076721 -1.8036499 -1.9440002 -1.318512q-1.7018127 0.6677551 -2.9816284 5.533966q-1.2797852 4.866211 -1.5628967 12.144409q-0.2685547 7.2724915 0.7347412 14.834808q0.8467102 5.79422 -0.06643677 8.300995q-0.8985748 2.5010376 -4.404007 3.8764954zm57.266098 -22.470215q-7.0108643 2.7509155 -13.1770935 -0.68743896q-6.1719666 -3.4529114 -9.407806 -11.700195q-3.5440369 -9.032745 -2.5368958 -18.7435q1.0071411 -9.710739 6.0162964 -17.349518q5.023712 -7.6444855 12.820038 -10.703613q2.4872437 -0.97595215 3.7075195 -0.34698486q1.2348328 0.62327576 2.7634583 2.8936615q2.1939697 -1.3811951 4.7976074 -2.4028168q5.541748 -2.1744995 7.094055 1.7818756q0.9302368 2.3709106 2.7268066 11.955063q2.4927063 14.010727 4.4844666 19.087097q0.6676941 1.7018127 1.9108276 2.388977q1.2576599 0.6814575 2.610382 0.15066528q2.15271 -0.8446808 4.108368 -4.8011627q1.9644775 -3.9767303 4.720276 -12.225159q0.73065186 -2.1162415 2.4324646 -2.7840118q1.4690857 -0.5764313 2.8491516 0.45980835q1.3743896 1.0217133 2.3046265 3.392624q1.769165 4.509094 0.6069031 7.8353577q-2.380005 7.580658 -6.0203857 13.574539q-3.6404114 5.9938965 -8.498535 7.9001465q-3.7236023 1.4610901 -7.8350525 0.13699341q-4.096863 -1.3298035 -7.4058228 -5.1004333q-2.155365 11.789429 -11.071655 15.288025zm-0.41610718 -12.996002q2.4872437 -0.97595215 3.5889587 -4.7987976q1.116272 -3.8285217 0.228302 -9.086227l-3.9807434 -22.423508q-4.6961365 1.9769592 -7.3580933 6.999466q-2.6474 5.0168 -2.8185425 11.596451q-0.1565857 6.573944 2.3259583 12.901215q1.3753662 3.5054626 3.4539795 4.6536865q2.0874634 1.1279602 4.5601807 0.15771484zm82.93976 -59.66838q0.30914307 -0.23880005 1.094574 -0.5469971q1.7018127 -0.6677551 3.048767 0.11294556q1.3412476 0.7661438 2.094574 2.686142q1.3753662 3.5054626 0.78427124 6.0201416q-0.5822754 2.4944153 -2.9281616 4.472351q-4.5307007 3.7247925 -10.407013 6.0305634q-4.974518 1.9519196 -9.897949 2.3227997q-1.2041931 6.5989685 -2.9316711 13.789291q-1.9954224 8.218643 -4.3378906 11.873703q-2.3424683 3.6550598 -6.5315247 5.2987823q-4.6254272 1.8149261 -8.702545 -0.74790955q-4.0682983 -2.583084 -7.810852 -10.111221q-7.5562134 -15.280151 -12.207397 -27.13472l-1.5522766 -3.9563751q-1.344635 -3.7693024 -0.0010375977 -5.9917603q1.3435669 -2.222458 5.1835327 -3.7292023q2.9381714 -1.1528778 4.856964 -0.41194153q1.9188232 0.7409363 3.1173096 3.7954865q5.0963135 12.989105 14.837036 33.15251q2.8345947 -12.710556 3.872406 -20.033112q-2.9859009 -2.6049652 -4.7607727 -7.1286163q-1.5066223 -3.8399963 -1.2347107 -8.109329q0.28079224 -4.2895966 2.3343506 -7.6970215q2.0535889 -3.4074402 5.777191 -4.868515q3.272705 -1.2841492 6.216461 0.22955322q2.943756 1.5137024 4.6729736 5.9209747q1.9917297 5.0763855 1.845581 12.703674q4.214142 -1.9221039 10.750397 -6.1820984l2.8174133 -1.7601013zm48.774567 -8.580658q1.4690552 -0.5764313 2.8491516 0.45980835q1.3743896 1.0217133 2.3046265 3.392624q1.769165 4.509094 0.60687256 7.8353577q-2.1916199 6.7346344 -8.129822 14.01619q-5.9381714 7.2815704 -14.6362915 10.69455q-11.854462 4.6514893 -20.93689 0.796402q-9.073608 -3.875351 -13.46225 -15.060822q-3.05896 -7.7963867 -2.422882 -15.800552q0.65063477 -8.009872 4.9076233 -14.228928q4.2658386 -6.2393036 11.611237 -9.121506q6.559967 -2.5740204 12.0312195 -0.22251892q5.4801025 2.331253 8.093872 8.993088q3.05896 7.7963715 -0.34381104 15.593704q-3.3939514 7.7770844 -15.433411 16.27774q4.859192 4.0855255 12.771851 0.98072815q5.0763245 -1.9918671 10.171051 -8.086441q5.1035767 -6.1148224 7.585388 -13.735428q0.73065186 -2.1162262 2.4324646 -2.7839966zm-34.891296 -5.2089386q-4.1744995 1.6380005 -5.148346 7.626251q-0.97384644 5.9882355 1.7312317 12.882797l0.085632324 0.21818542q6.04541 -4.1848755 8.646942 -8.847992q2.5958557 -4.677643 0.9579468 -8.852203q-0.8446045 -2.1527252 -2.5452576 -2.9792786q-1.691803 -0.8467865 -3.7281494 -0.04776001zm65.183075 4.0148926q0.79119873 -1.6196747 2.0420837 -2.1105042q1.3527222 -0.530777 2.7955933 0.6654663q1.4428711 1.1962433 2.287506 3.3489838q1.8604736 4.7418213 -0.42144775 8.893463q-3.9556274 7.158249 -11.417389 10.086105q-10.734467 4.212021 -19.230194 -2.8106384q-8.486847 -7.0428925 -14.159607 -21.501114q-5.40448 -13.774567 -8.766571 -32.78174q-3.353241 -19.02742 -1.3744812 -34.389847q1.9876099 -15.382675 11.587524 -19.14952q5.425415 -2.1288376 10.498169 1.68824q5.081604 3.796814 8.756897 13.164108q5.278961 13.454567 4.832184 34.090553q-0.43222046 20.630264 -6.4086 42.915634q2.6002808 4.317276 5.421051 5.560318q2.8353271 1.2373352 6.3407593 -0.13812256q1.9199829 -0.7533722 3.9039001 -2.8410492q1.9839172 -2.087677 3.312622 -4.690338zm-34.741028 -77.59362q-2.6036072 1.0216141 -2.1953125 11.687599q0.4025879 10.6514435 3.3654785 25.518341q2.9629211 14.866882 7.7352295 27.714584q2.8470764 -16.357742 2.3840942 -31.48381q-0.46868896 -15.140625 -4.7660522 -26.093369q-3.367096 -8.5818405 -6.5234375 -7.3433456z" fill-rule="nonzero"/><path fill="#000000" d="m278.403 357.56207q3.5211792 8.974579 -0.27526855 17.950256q-3.7818909 8.969971 -14.794159 16.58081q7.2473755 -0.7792053 12.214142 1.9548645q4.9667664 2.7341003 7.038391 8.014099q3.2700806 8.334564 0.45095825 16.507141q-2.8248596 8.158051 -11.539703 15.421326q-8.720551 7.2487183 -22.858612 12.796265q-5.279953 2.0717468 -8.561844 2.990265q1.0624084 3.0072021 -0.79026794 5.4294434q-1.8469543 2.4367676 -5.6432953 3.926361q-3.7963257 1.489624 -5.883774 0.36166382q-2.0874634 -1.1279602 -3.1678925 -4.480591q-4.8382874 -15.154877 -8.455627 -32.416992q-3.6027985 -17.267822 -5.308502 -34.02115q-0.2911377 -2.9237976 1.5088501 -4.8385925q1.794281 -1.9293518 5.386978 -3.3390503q6.4290466 -2.522644 7.838669 1.0700989q0.57640076 1.4690857 0.6985626 3.6199646q0.4753723 9.296875 3.256363 24.470123q2.7898254 15.153015 6.6369324 28.380554q5.2272797 -1.5643616 8.398163 -2.8085632q14.763504 -5.792938 19.994705 -12.780304q5.2457275 -6.993042 2.6376343 -13.64035q-1.8205261 -4.639984 -7.015259 -6.2439575q-5.20047 -1.6185303 -14.620483 1.7084656q-2.1490326 0.7257385 -3.363617 0.11129761q-1.2202911 -0.6289673 -2.0477905 -2.7380676q-1.1984711 -3.054535 -0.67492676 -5.441986q0.51782227 -2.402008 3.8524017 -3.827942q7.405243 -3.1574402 12.683075 -7.5446777q5.2778473 -4.3872375 7.3274384 -9.387665q2.064148 -5.006134 0.15802002 -9.864319q-2.3969421 -6.1091003 -9.805496 -7.2808228q-7.3940277 -1.1774292 -19.844833 3.7080688q-11.287186 4.428894 -20.691162 11.4758q-9.409683 7.032379 -15.063797 14.353516q-2.5869598 3.3313904 -4.914215 4.244568q-1.8908844 0.74194336 -3.408142 -0.17333984q-1.5229645 -0.9298096 -2.3105316 -2.9371033q-1.032959 -2.632721 -0.66941833 -4.9573975q0.35783386 -2.3392334 3.6229095 -6.4234314q6.886627 -8.543304 17.680695 -16.068542q10.808609 -7.530945 23.25943 -12.416412q19.098022 -7.493744 31.007965 -4.7313232q11.918762 2.742157 16.056335 13.287628zm64.62369 15.17807q1.3672485 -0.5364685 2.651245 0.55426025q1.2782593 1.0762024 2.105774 3.1853027q1.986023 5.0618286 -0.6975403 7.2058105q-5.4685974 4.713867 -12.941437 7.9985657q1.473999 9.660339 -2.3426514 17.301178q-3.8166504 7.6408386 -11.307495 10.580109q-6.32724 2.4826965 -12.020203 1.1917114q-5.6784363 -1.2966919 -9.991699 -5.445343q-4.3044434 -4.168915 -6.6214905 -10.074371q-3.1445312 -8.014557 -2.5497437 -15.482208q0.6036682 -7.487915 4.5986633 -13.134155q3.9949646 -5.6462708 10.540375 -8.2146q8.014465 -3.1447144 15.090607 0.47372437q7.0704346 3.6039124 11.104279 11.403809q4.834381 -2.2662048 10.997833 -6.7491455q0.7580261 -0.54922485 1.3834839 -0.7946472zm-26.077148 35.308716q3.3745117 -1.3240967 4.7743225 -5.0289q1.4086304 -3.7250366 0.22628784 -9.219727q-4.140167 -0.9267578 -7.295227 -3.8345947q-3.1405334 -2.9135742 -4.7099304 -6.913574q-0.6620178 -1.6872864 -1.0040283 -3.500122l-0.5236206 0.20547485q-4.2326965 1.6608276 -5.4331665 6.8148193q-1.20047 5.1539917 1.6986694 12.543121q2.2770996 5.80365 5.744629 7.9678345q3.4675598 2.164215 6.522064 0.9656677zm73.656494 -53.978027q1.3672485 -0.5364685 2.6512146 0.55426025q1.2782898 1.0762024 2.105774 3.1853027q1.9860535 5.0618286 -0.6975403 7.2058105q-5.4685974 4.713867 -12.941406 7.9985657q1.473999 9.660339 -2.3426514 17.301178q-3.8166504 7.6408386 -11.307495 10.580109q-6.32724 2.4826965 -12.020203 1.1917114q-5.6784363 -1.2966919 -9.99173 -5.445343q-4.3044434 -4.168915 -6.62146 -10.074371q-3.1445618 -8.014557 -2.5497437 -15.482208q0.6036682 -7.487915 4.598633 -13.134155q3.994995 -5.6462708 10.540405 -8.214569q8.014465 -3.1447449 15.090607 0.47369385q7.0704346 3.6039124 11.104248 11.403809q4.8344116 -2.2662048 10.997864 -6.7491455q0.7580261 -0.54922485 1.3834839 -0.7946472zm-26.077148 35.308716q3.3745117 -1.3240967 4.7743225 -5.0289q1.4086304 -3.7250366 0.22628784 -9.219727q-4.140167 -0.9267578 -7.295227 -3.8345947q-3.1405334 -2.9135742 -4.709961 -6.913574q-0.6619873 -1.6872864 -1.0039978 -3.500122l-0.5236511 0.20547485q-4.2326965 1.6608276 -5.433136 6.8148193q-1.20047 5.1539917 1.6986694 12.543121q2.2770996 5.80365 5.744629 7.9678345q3.4675293 2.164215 6.522064 0.9656677zm73.102936 -29.036804q4.6509705 -0.8514404 6.1804504 3.046753q1.032959 2.632721 -0.5275574 5.628479q-1.5662231 2.9812012 -6.002533 4.7219543q-7.592682 2.9792175 -14.230286 0.17901611q-6.6433105 -2.8147888 -9.622345 -10.407532q-1.6150818 -4.1163635 1.8953857 -7.5751343q3.8581238 -3.8133545 4.9750977 -6.8700867q1.1169739 -3.0567017 -0.16711426 -6.3294373q-0.7476196 -1.9054565 -1.9185486 -2.5369873q-1.1564026 -0.63726807 -2.3200378 -0.18069458q-2.850891 1.1186523 -4.668518 6.5819397q-1.8087769 5.443054 -2.2104492 13.103485q-0.40740967 7.645874 0.59332275 15.158844q0.7824402 5.4165955 -0.074523926 7.767029q-0.848114 2.3302002 -4.1062927 3.6086426q-3.272705 1.2841492 -5.744751 -0.481781q-2.457489 -1.7716675 -4.927185 -6.5262146q-2.4697266 -4.754547 -6.236328 -14.354553q-6.374695 -16.247314 -9.969513 -35.163147q-3.5802612 -18.92157 -1.789856 -33.437958q1.784668 -14.530975 10.860962 -18.092346q4.8435974 -1.9005432 9.492371 1.0925903q4.643097 2.9785767 7.2511597 9.625885q4.1832275 10.661835 2.4492188 24.55188q-1.7340088 13.890015 -9.772247 34.684906q1.8460693 5.603485 4.123169 11.407135q-0.10873413 -15.164337 4.082245 -23.690582q4.205536 -8.531952 9.907318 -10.769226q5.2654114 -2.0660706 9.889557 0.26535034q4.6329956 2.3111572 6.7046204 7.591156q2.2770996 5.80365 1.2304993 11.820435q-1.0522766 6.002228 -6.7481384 12.618042q1.8840942 2.9197693 4.312561 3.376831q2.42276 0.44247437 7.0882874 -0.41467285zm-48.13846 -70.842834q-1.8908997 0.74194336 -2.0837402 7.0951233q-0.184021 6.332947 1.2726746 16.419708q1.456665 10.086761 4.3525085 21.488739q3.5207214 -10.277405 4.227051 -21.011505q0.71517944 -10.7543335 -2.18396 -18.143433q-1.3240356 -3.3745422 -2.7677917 -4.8725586q-1.4349365 -1.51828 -2.816742 -0.9760742z" fill-rule="nonzero"/></g></svg>